HIERARCHY
ROOT Hips
{
	OFFSET 0.000000 0.000000 0.000000
	CHANNELS 6 Xposition Yposition Zposition Zrotation Yrotation Xrotation 
	JOINT LHipJoint
	{
		OFFSET 0.000000 0.000000 0.000000
		CHANNELS 3 Zrotation Yrotation Xrotation
		JOINT LeftUpLeg
		{
			OFFSET 1.363060 -1.794630 0.839290
			CHANNELS 3 Zrotation Yrotation Xrotation
			JOINT LeftLeg
			{
				OFFSET 2.448110 -6.726130 0.000000
				CHANNELS 3 Zrotation Yrotation Xrotation
				JOINT LeftFoot
				{
					OFFSET 2.562200 -7.039590 0.000000
					CHANNELS 3 Zrotation Yrotation Xrotation
					JOINT LeftToeBase
					{
						OFFSET 0.157640 -0.433110 2.322550
						CHANNELS 3 Zrotation Yrotation Xrotation
						End Site
						{
							OFFSET 0.000000 0.000000 0.000000
						}
					}
				}
			}
		}
	}
	JOINT RHipJoint
	{
		OFFSET 0.000000 0.000000 0.000000
		CHANNELS 3 Zrotation Yrotation Xrotation
		JOINT RightUpLeg
		{
			OFFSET -1.305520 -1.794630 0.839290
			CHANNELS 3 Zrotation Yrotation Xrotation
			JOINT RightLeg
			{
				OFFSET -2.542530 -6.985550 0.000000
				CHANNELS 3 Zrotation Yrotation Xrotation
				JOINT RightFoot
				{
					OFFSET -2.568260 -7.056230 0.000000
					CHANNELS 3 Zrotation Yrotation Xrotation
					JOINT RightToeBase
					{
						OFFSET -0.164730 -0.452590 2.363150
						CHANNELS 3 Zrotation Yrotation Xrotation
						End Site
						{
							OFFSET 0.000000 0.000000 0.000000
						}
					}
				}
			}
		}
	}
	JOINT LowerBack
	{
		OFFSET 0.000000 0.000000 0.000000
		CHANNELS 3 Zrotation Yrotation Xrotation
		JOINT Spine
		{
			OFFSET 0.028270 2.035590 -0.193380
			CHANNELS 3 Zrotation Yrotation Xrotation
			JOINT Spine1
			{
				OFFSET 0.056720 2.048850 -0.042750
				CHANNELS 3 Zrotation Yrotation Xrotation
				JOINT Neck
				{
					OFFSET 0.000000 0.000000 0.000000
					CHANNELS 3 Zrotation Yrotation Xrotation
					JOINT Neck1
					{
						OFFSET -0.054170 1.746240 0.172020
						CHANNELS 3 Zrotation Yrotation Xrotation
						JOINT Head
						{
							OFFSET 0.104070 1.761360 -0.123970
							CHANNELS 3 Zrotation Yrotation Xrotation
							End Site
							{
								OFFSET 0.000000 0.000000 0.000000
							}
						}
					}
				}
				JOINT LeftShoulder
				{
					OFFSET 0.000000 0.000000 0.000000
					CHANNELS 3 Zrotation Yrotation Xrotation
					JOINT LeftArm
					{
						OFFSET 3.362410 1.200890 -0.311210
						CHANNELS 3 Zrotation Yrotation Xrotation
						JOINT LeftForeArm
						{
							OFFSET 4.983000 -0.000000 -0.000000
							CHANNELS 3 Zrotation Yrotation Xrotation
							JOINT LeftHand
							{
								OFFSET 3.483560 -0.000000 -0.000000
								CHANNELS 3 Zrotation Yrotation Xrotation
								JOINT LeftFingerBase
								{
									OFFSET 0.000000 0.000000 0.000000
									CHANNELS 3 Zrotation Yrotation Xrotation
									JOINT LeftHandIndex1
									{
										OFFSET 0.715260 -0.000000 -0.000000
										CHANNELS 3 Zrotation Yrotation Xrotation
										End Site
										{
											OFFSET 0.000000 0.000000 0.000000
										}
									}
								}
								JOINT LThumb
								{
									OFFSET 0.000000 0.000000 0.000000
									CHANNELS 3 Zrotation Yrotation Xrotation
									End Site
									{
										OFFSET 0.000000 0.000000 0.000000
									}
								}
							}
						}
					}
				}
				JOINT RightShoulder
				{
					OFFSET 0.000000 0.000000 0.000000
					CHANNELS 3 Zrotation Yrotation Xrotation
					JOINT RightArm
					{
						OFFSET -3.136600 1.374050 -0.404650
						CHANNELS 3 Zrotation Yrotation Xrotation
						JOINT RightForeArm
						{
							OFFSET -5.241900 -0.000000 -0.000000
							CHANNELS 3 Zrotation Yrotation Xrotation
							JOINT RightHand
							{
								OFFSET -3.444170 -0.000000 -0.000000
								CHANNELS 3 Zrotation Yrotation Xrotation
								JOINT RightFingerBase
								{
									OFFSET 0.000000 0.000000 0.000000
									CHANNELS 3 Zrotation Yrotation Xrotation
									JOINT RightHandIndex1
									{
										OFFSET -0.622530 -0.000000 -0.000000
										CHANNELS 3 Zrotation Yrotation Xrotation
										End Site
										{
											OFFSET 0.000000 0.000000 0.000000
										}
									}
								}
								JOINT RThumb
								{
									OFFSET 0.000000 0.000000 0.000000
									CHANNELS 3 Zrotation Yrotation Xrotation
									End Site
									{
										OFFSET 0.000000 0.000000 0.000000
									}
								}
							}
						}
					}
				}
			}
		}
	}
}
MOTION
Frames: 12
Frame Time: 0.008333
11.391187 18.072027 -8.072836 -1.386268 -11.681035 2.976432 -7.365544 -1.409857 -3.181118 -5.322367 -4.881832 -30.868605 0.193600 11.110237 25.625335 -3.233155 16.872672 26.287956 0.314600 -3.605400 -9.969200 6.337699 -5.388543 10.102132 10.291915 9.490210 9.724860 0.433346 -6.885203 22.855303 0.838773 -10.629890 28.560636 -2.174000 9.219500 -26.484300 3.396091 2.840297 6.178304 0.465846 3.617476 -3.274235 -3.067816 2.579565 -1.023158 -5.016800 0.345451 -14.531097 4.118396 0.866127 -3.092733 0.804200 0.371300 0.689800 -4.516490 -1.855364 -0.387928 -85.139041 17.968714 -3.658861 2.466243 -10.945093 -0.850794 -1.612587 -1.528189 -8.044330 23.236829 16.956828 8.263400 -7.125000 0.000000 0.000000 -2.999400 49.799800 -0.355200 6.518164 3.431326 -0.040346 65.628864 13.560091 40.216517 -50.893078 51.331225 -29.265951 1.103877 -0.675719 -20.019471 -32.827467 18.774119 -12.697500 7.125000 0.000000 0.000000 -3.332100 -6.635100 -2.929900
11.396910 18.064112 -7.930569 -1.377339 -11.543927 2.871411 -7.338194 -1.378809 -3.066236 -5.567350 -4.858063 -30.833156 0.323103 11.288814 26.341202 -3.191018 16.437185 25.708716 0.299326 -3.516500 -9.720416 6.334283 -5.319780 9.953357 10.310149 9.543589 9.379655 0.064499 -7.394458 24.221887 0.770303 -11.050061 29.852058 -2.159069 9.189785 -26.390798 3.431706 2.832137 6.292222 0.465101 3.621501 -3.282335 -3.081514 2.569594 -1.132982 -5.134246 0.304886 -14.314502 4.139849 0.814569 -3.249888 0.841846 0.351229 0.571478 -4.527108 -1.877580 -0.377211 -85.121938 17.811282 -3.600575 2.549014 -11.055519 -0.870688 -1.607032 -1.534330 -7.995312 23.115588 17.099431 8.281023 -7.125000 0.000000 0.000000 -3.158403 49.940690 -0.385600 6.521248 3.424894 -0.054563 65.702623 12.894902 40.136469 -50.554467 51.247773 -29.011123 1.112621 -0.668098 -19.893803 -32.893420 18.593716 -12.621328 7.125000 0.000000 0.000000 -3.411552 -6.832629 -2.986540
11.402632 18.056196 -7.788303 -1.368411 -11.406819 2.766389 -7.310844 -1.347761 -2.951353 -5.812333 -4.834295 -30.797708 0.452607 11.467391 27.057068 -3.148881 16.001698 25.129477 0.284053 -3.427599 -9.471632 6.330867 -5.251017 9.804583 10.328384 9.596969 9.034450 -0.304348 -7.903713 25.588472 0.701833 -11.470233 31.143479 -2.144138 9.160070 -26.297296 3.467321 2.823977 6.406141 0.464357 3.625526 -3.290436 -3.095212 2.559623 -1.242806 -5.251692 0.264321 -14.097907 4.161301 0.763011 -3.407044 0.879491 0.331158 0.453156 -4.537726 -1.899796 -0.366494 -85.104836 17.653850 -3.542289 2.631786 -11.165945 -0.890582 -1.601476 -1.540471 -7.946295 22.994347 17.242035 8.298647 -7.125000 0.000000 0.000000 -3.317405 50.081579 -0.416001 6.524331 3.418463 -0.068779 65.776383 12.229713 40.056421 -50.215856 51.164320 -28.756295 1.121364 -0.660477 -19.768135 -32.959373 18.413314 -12.545155 7.125000 0.000000 0.000000 -3.491005 -7.030159 -3.043179
11.403850 18.048742 -7.650029 -1.295892 -11.343214 2.607678 -7.305245 -1.307499 -2.812894 -6.059988 -4.776205 -30.691271 0.558357 11.606983 27.686356 -3.084946 15.539119 24.544980 0.262172 -3.290853 -9.089900 6.313765 -5.177768 9.623286 10.384967 9.790517 8.750064 -0.722993 -8.425475 27.027539 0.635508 -11.892333 32.235000 -2.303580 9.464340 -27.264748 3.380357 2.815280 6.517777 0.470243 3.619837 -3.270015 -3.086562 2.543176 -1.160211 -4.847546 0.235372 -14.421575 3.666028 0.691621 -3.255955 0.534650 0.246230 0.608836 -4.503460 -1.924288 -0.364472 -85.033016 17.293114 -3.025355 2.698948 -11.292168 -0.912600 -1.584032 -1.568972 -8.522786 22.876537 17.478373 8.359149 -7.125000 0.000000 0.000000 -3.491872 50.326315 -0.460038 6.576924 3.409615 -0.097367 65.818765 11.759961 40.093437 -49.760685 51.027672 -28.395986 1.136514 -0.654641 -20.015558 -33.067845 18.465598 -12.633140 7.125000 0.000000 0.000000 -3.558226 -6.940846 -3.108395
11.404866 18.041307 -7.511934 -1.220535 -11.282890 2.446570 -7.300618 -1.266826 -2.673381 -6.307762 -4.716584 -30.581665 0.663047 11.744835 28.311778 -3.020039 15.075332 23.960248 0.239995 -3.151970 -8.702234 6.296053 -5.104320 9.440538 10.443262 9.990324 8.468393 -1.143861 -8.947795 28.469842 0.569279 -12.314519 33.317596 -2.470807 9.783520 -28.279564 3.287922 2.806560 6.629311 0.476425 3.613715 -3.248320 -3.076915 2.526440 -1.069026 -4.420116 0.206942 -14.769362 3.147687 0.619345 -3.091105 0.172733 0.158406 0.776749 -4.467191 -1.948882 -0.362838 -84.958754 16.923302 -2.487945 2.765414 -11.419096 -0.934713 -1.566056 -1.598472 -9.127203 22.758880 17.718896 8.421565 -7.125000 0.000000 0.000000 -3.667029 50.575686 -0.504684 6.631728 3.400658 -0.126597 65.859745 11.298934 40.135680 -49.300310 50.888649 -28.030967 1.151950 -0.648885 -20.279636 -33.178215 18.528269 -12.728454 7.125000 0.000000 0.000000 -3.624901 -6.838728 -3.173993
11.405149 18.039156 -7.377165 -1.072520 -11.239810 2.326992 -7.317238 -1.231631 -2.529831 -6.564033 -4.714462 -30.454670 0.733490 11.837873 28.834985 -2.946573 14.566918 23.233603 0.199777 -2.860691 -7.892253 6.293190 -5.024098 9.233363 10.458658 10.208137 8.069277 -1.652940 -9.492358 29.967845 0.509418 -13.003386 34.529684 -2.587444 9.992431 -28.954710 3.106843 2.812432 6.683583 0.474125 3.617407 -3.238264 -3.110315 2.511989 -0.918548 -3.600058 0.198633 -15.563012 2.318709 0.544083 -2.608901 -0.455251 0.031454 1.234008 -4.407643 -1.978651 -0.381247 -84.818856 16.467985 -1.988541 2.818681 -11.526455 -0.955577 -1.555071 -1.621339 -9.729759 22.718590 17.878060 8.477042 -7.125000 0.000000 0.000000 -3.739664 50.743039 -0.530124 6.713397 3.403467 -0.177882 65.971903 10.962617 40.141412 -48.626930 50.649360 -27.489326 1.162102 -0.650457 -20.452776 -33.197715 18.639418 -12.811500 7.125000 0.000000 0.000000 -3.621959 -6.697705 -3.181301
11.405363 18.037498 -7.242706 -0.917715 -11.198342 2.211295 -7.335844 -1.196948 -2.385904 -6.821099 -4.717714 -30.326049 0.800732 11.926724 29.348639 -2.872308 14.054333 22.493695 0.157872 -2.555169 -7.042804 6.291715 -4.943243 9.023906 10.470045 10.427634 7.659184 -2.170262 -10.039000 31.471053 0.450152 -13.717176 35.753873 -2.699353 10.191038 -29.598113 2.917480 2.819668 6.732504 0.471032 3.622016 -3.229296 -3.147739 2.497750 -0.762529 -2.743307 0.192204 -16.398332 1.460699 0.468541 -2.097038 -1.108101 -0.099155 1.718310 -4.345919 -2.008903 -0.401530 -84.672823 16.004676 -1.492689 2.870715 -11.631985 -0.976325 -1.544740 -1.643586 -10.332142 22.685530 18.029621 8.531871 -7.125000 0.000000 0.000000 -3.802716 50.902727 -0.553769 6.797578 3.407376 -0.231229 66.090712 10.637954 40.143733 -47.933642 50.400700 -26.931177 1.171761 -0.652715 -20.617417 -33.208724 18.755097 -12.893400 7.125000 0.000000 0.000000 -3.612511 -6.553046 -3.183162
11.410239 18.047403 -7.106476 -0.734703 -11.204683 2.080619 -7.381516 -1.144511 -2.218179 -7.104942 -4.727413 -30.088826 0.850974 11.971967 29.739700 -2.864876 13.724148 21.714850 0.147037 -2.470335 -6.807360 6.298136 -4.867902 8.794450 10.386943 10.624655 7.163934 -2.777591 -10.600790 33.043677 0.355112 -14.610079 37.059393 -2.678662 10.155385 -29.481636 2.722969 2.841994 6.854677 0.425680 3.641702 -3.213243 -3.088157 2.492601 -0.896358 -3.664211 0.219268 -15.492713 2.425396 0.571994 -2.738712 -0.393810 0.054043 1.158115 -4.453523 -2.026183 -0.348777 -84.506010 15.682765 -1.034502 2.976334 -11.775196 -1.001156 -1.549936 -1.663659 -10.863293 22.898580 18.073394 8.641071 -7.125000 0.000000 0.000000 -3.578633 50.987686 -0.527992 6.717701 3.382421 -0.196723 66.347337 10.295558 40.119527 -47.081484 50.094278 -26.248105 1.180094 -0.659432 -20.615746 -33.171089 18.702535 -12.852644 7.125000 0.000000 0.000000 -3.599265 -6.609442 -3.167524
11.415802 18.059009 -6.969985 -0.547542 -11.218055 1.947739 -7.431168 -1.089463 -2.046953 -7.392723 -4.738060 -29.835633 0.898715 12.010797 30.112734 -2.867271 13.420786 20.930279 0.140771 -2.417954 -6.662212 6.305717 -4.793371 8.562054 10.289946 10.818370 6.656162 -3.398157 -11.164808 34.626508 0.254811 -15.529321 38.376875 -2.638470 10.085283 -29.253413 2.527701 2.866538 6.987622 0.374112 3.663606 -3.196148 -3.014309 2.488788 -1.072812 -4.846534 0.251257 -14.331073 3.658138 0.701769 -3.550023 0.521531 0.248978 0.444317 -4.586029 -2.041554 -0.285284 -84.336140 15.381648 -0.581855 3.089833 -11.923948 -1.026587 -1.557415 -1.683413 -11.383968 23.147822 18.101315 8.758267 -7.125000 0.000000 0.000000 -3.312323 51.061656 -0.494949 6.613697 3.353222 -0.149298 66.624230 9.950553 40.091421 -46.205962 49.779361 -25.546662 1.188233 -0.666805 -20.589617 -33.126300 18.625230 -12.793850 7.125000 0.000000 0.000000 -3.585460 -6.695405 -3.149313
11.424335 18.078242 -6.834248 -0.318753 -11.221935 1.779742 -7.516816 -1.025432 -1.857552 -7.727047 -4.760437 -29.500279 0.940126 12.021752 30.394003 -2.923808 13.311484 20.293749 0.165066 -2.606450 -7.185592 6.289158 -4.706254 8.326918 10.132747 10.949670 6.080376 -4.012263 -11.681567 36.265657 0.099563 -16.051676 39.389342 -2.733349 10.247291 -29.784062 2.333370 2.856596 7.128774 0.338419 3.642776 -3.189269 -3.063046 2.459685 -1.066971 -4.727276 0.196152 -14.540048 3.613919 0.630560 -3.443607 0.473285 0.207176 0.552990 -4.589637 -2.070520 -0.296826 -84.274474 15.149871 0.138936 3.350463 -12.328994 -1.093140 -1.555744 -1.709369 -12.162631 23.414917 18.164885 8.898150 -7.125000 0.000000 0.000000 -3.036151 51.175724 -0.461418 6.615250 3.356258 -0.163454 66.914414 9.794636 40.140637 -45.228586 49.374161 -24.759420 1.203409 -0.676634 -20.733472 -33.175753 18.663536 -12.854866 7.125000 0.000000 0.000000 -3.612646 -6.617483 -3.178790
11.433481 18.099046 -6.698666 -0.081382 -11.223857 1.604504 -7.609886 -0.959550 -1.664403 -8.070969 -4.785233 -29.147985 0.980232 12.026958 30.656352 -2.991508 13.242194 19.687743 0.195662 -2.844611 -7.846813 6.267622 -4.616540 8.091216 9.963136 11.068100 5.490567 -4.625036 -12.188583 37.916418 -0.067013 -16.492199 40.338920 -2.856076 10.457157 -30.471180 2.139232 2.839543 7.271619 0.306000 3.613135 -3.184497 -3.137058 2.425367 -1.023544 -4.339649 0.123091 -15.031623 3.306410 0.517911 -3.147968 0.226362 0.116562 0.831244 -4.566670 -2.102288 -0.323840 -84.235117 14.932390 0.915014 3.641430 -12.786884 -1.168172 -1.552186 -1.736605 -12.994488 23.685693 18.235806 9.042711 -7.125000 0.000000 0.000000 -2.757946 51.298060 -0.427786 6.638566 3.365940 -0.190307 67.207338 9.677706 40.205796 -44.230209 48.950346 -23.954488 1.220036 -0.686970 -20.912375 -33.244638 18.725679 -12.940584 7.125000 0.000000 0.000000 -3.648285 -6.505770 -3.218100
11.443257 18.119894 -6.565188 0.153277 -11.212993 1.501676 -7.704901 -0.913283 -1.483259 -8.406805 -4.812136 -28.833745 1.001892 12.013626 30.858117 -3.030518 13.130500 19.119816 0.203470 -2.904508 -8.013082 6.235385 -4.502385 7.849862 9.779353 11.089515 4.756632 -5.206593 -12.634941 39.534297 -0.177634 -16.723879 40.886443 -3.111530 10.859607 -31.822700 1.943486 2.791633 7.333145 0.301590 3.543627 -3.197961 -3.130467 2.367977 -1.009068 -3.725614 0.153532 -15.543343 2.584704 0.507972 -2.725130 -0.290403 0.037881 1.189681 -4.492569 -2.147246 -0.360140 -84.403878 14.825657 1.472886 3.969666 -13.296477 -1.257730 -1.533734 -1.756286 -13.724922 23.748233 18.335902 9.111709 -7.125000 0.000000 0.000000 -2.714436 51.414198 -0.429146 6.698697 3.372753 -0.227483 67.364650 9.486313 40.406022 -43.267373 48.515801 -23.184097 1.237748 -0.689818 -21.144487 -33.294284 18.773009 -13.005400 7.125000 0.000000 0.000000 -3.676764 -6.423043 -3.249250
